# Blender v2.92.0 OBJ File: 'LightCone.blend'
# www.blender.org
mtllib LightCone.mtl
o Cone
v 0.360127 -0.068765 -1.810481
v 1.025555 -0.068765 -1.534852
v 1.534852 -0.068765 -1.025555
v 1.810481 -0.068765 -0.360127
v 1.810481 -0.068765 0.360127
v 1.534852 -0.068765 1.025555
v 0.706414 -0.068765 1.705436
v -0.360128 -0.068765 1.810481
v -1.305285 -0.068765 1.305283
v -1.705436 -0.068765 0.706413
v -1.845950 -0.068765 -0.000002
v -1.534850 -0.068765 -1.025557
v -0.706412 -0.068765 -1.705437
v 0.000000 4.732511 0.000000
vt 0.407674 0.035846
vt 0.500000 0.500000
vt 0.165363 0.165364
vt 0.893491 0.762922
vt 0.762922 0.893491
vt 0.592326 0.964154
vt 0.026753 0.500000
vt 0.106510 0.762923
vt 0.964154 0.592326
vt 0.893491 0.237078
vt 0.681104 0.062776
vt 0.318897 0.937224
vt 0.062776 0.318896
vt 0.964154 0.407674
vn -0.4424 0.3453 0.8277
vn 0.5186 0.3589 -0.7761
vn -0.8981 0.3453 -0.2724
vn 0.8645 0.3528 -0.3581
vn 0.5954 0.3453 0.7255
vn -0.5954 0.3453 -0.7255
vn -0.8623 0.3589 0.3572
vn 0.9155 0.3589 0.1821
vn -0.0920 0.3453 -0.9340
vn 0.0920 0.3453 0.9340
usemtl Material.001
s off
f 8/1/1 14/2/1 9/3/1
f 14/2/2 3/4/2 2/5/2 1/6/2
f 11/7/3 14/2/3 12/8/3
f 14/2/4 4/9/4 3/4/4
f 6/10/5 14/2/5 7/11/5
f 12/8/6 14/2/6 13/12/6
f 14/2/7 11/7/7 10/13/7 9/3/7
f 5/14/8 4/9/8 14/2/8 6/10/8
f 1/6/9 13/12/9 14/2/9
f 7/11/10 14/2/10 8/1/10
o Cone.001_Cone.007
v 0.360127 -0.068765 -1.810481
v 1.025555 -0.068765 -1.534852
v 1.534852 -0.068765 -1.025555
v 1.810481 -0.068765 -0.360127
v 1.810481 -0.068765 0.360127
v 1.534852 -0.068765 1.025555
v 0.706414 -0.068765 1.705436
v -0.360128 -0.068765 1.810481
v -1.305285 -0.068765 1.305283
v -1.705436 -0.068765 0.706413
v -1.845950 -0.068765 -0.000002
v -1.534850 -0.068765 -1.025557
v -0.706412 -0.068765 -1.705437
v 0.000000 4.732511 0.000000
vt 0.407674 0.035846
vt 0.165363 0.165364
vt 0.500000 0.500000
vt 0.592326 0.964154
vt 0.762922 0.893491
vt 0.893491 0.762922
vt 0.026753 0.500000
vt 0.106510 0.762923
vt 0.964154 0.592326
vt 0.893491 0.237078
vt 0.681104 0.062776
vt 0.318897 0.937224
vt 0.062776 0.318896
vt 0.964154 0.407674
vn 0.4424 -0.3453 -0.8277
vn -0.5186 -0.3589 0.7761
vn 0.8981 -0.3453 0.2724
vn -0.8645 -0.3528 0.3581
vn -0.5954 -0.3453 -0.7255
vn 0.5954 -0.3453 0.7255
vn 0.8623 -0.3589 -0.3572
vn -0.9155 -0.3589 -0.1821
vn 0.0920 -0.3453 0.9340
vn -0.0920 -0.3453 -0.9340
usemtl Material.006
s off
f 22/15/11 23/16/11 28/17/11
f 28/17/12 15/18/12 16/19/12 17/20/12
f 25/21/13 26/22/13 28/17/13
f 28/17/14 17/20/14 18/23/14
f 20/24/15 21/25/15 28/17/15
f 26/22/16 27/26/16 28/17/16
f 28/17/17 23/16/17 24/27/17 25/21/17
f 19/28/18 20/24/18 28/17/18 18/23/18
f 15/18/19 28/17/19 27/26/19
f 21/25/20 22/15/20 28/17/20
